<?xml version="1.0" standalone="no"?>
<!DOCTYPE svg PUBLIC "-//W3C//DTD SVG 1.1//EN" "http://www.w3.org/Graphics/SVG/1.1/DTD/svg11.dtd" >
<svg xmlns="http://www.w3.org/2000/svg">
<metadata>Generated by IcoMoon</metadata>
<defs>
<font id="fuse-icomoon" horiz-adv-x="1024">
<font-face units-per-em="1024" ascent="960" descent="-64" />
<missing-glyph horiz-adv-x="1024" />
<glyph unicode="&#x20;" horiz-adv-x="512" d="" />
<glyph unicode="&#xe900;" glyph-name="bell" d="M511.6 31.8c-43.5 0-77.9 33.8-80.1 77.7h160.3c-2.3-43.9-36.7-77.7-80.2-77.7zM208.4 181.4c-20.6 0-37.3 16.7-37.3 37.2 0 9.2 3.4 18 9.5 24.9l57.7 64.1v183.2c0 128.9 85.5 241 208 272.6l8 2v33.6c0 35.2 25.1 62.8 57.2 62.8 4.8 0 9.5-0.6 14.4-1.8 24.9-5.4 41.7-28.5 42.7-58.9l0.1-34.9 3.4-0.8c122.8-30.1 210.2-140.9 212.6-269.4v-188.5l60-63.3c6.8-7.2 10.4-16.6 10.2-26.5-0.3-9.9-4.4-19.2-11.6-26-7-6.6-16.1-10.3-25.7-10.3h-609.2zM289.1 268.9c-3.9-4.2-4.9-10.2-2.7-15.5 2.2-5.2 7.3-8.6 12.9-8.6h424.5c5.6 0 10.7 3.4 12.9 8.6 2.3 5.3 1.2 11.3-2.7 15.5l-12.9 13.5v208.4c0 100.1-69.1 189.8-164.3 213.1-19.6 4.4-34.7 6.6-44.9 6.6h-0.7c-10.3-0.1-25.2-2.5-45.5-7.5-95-22.7-163.9-111.9-163.9-212.2v-208.5l-12.7-13.4z" />
<glyph unicode="&#xe901;" glyph-name="blackboard" d="M320.8 336.6h228.4c17.6 0 32 14.1 32 31.4s-14.4 31.4-32 31.4h-228.4c-17.6 0-31.9-14.1-31.9-31.4s14.4-31.4 31.9-31.4zM320.8 492.7h370.2c17.7 0 32 14.1 32 31.4s-14.3 31.4-32 31.4h-370.2c-17.6 0-31.9-14.1-31.9-31.4s14.4-31.4 31.9-31.4zM894.4 220.3h-27v484.4c0 17.3-14.3 31.4-31.9 31.4h-644.9c-17.6 0-32-14.1-32-31.4v-484.4h-27c-17.6 0-32-14.1-32-31.4s14.4-31.4 32-31.4h762.7c17.6 0 32 14.1 32 31.4s-14.3 31.4-31.9 31.4zM803.4 220.3h-580.8v453h580.8v-453z" />
<glyph unicode="&#xe902;" glyph-name="block-arrow" d="M512.2 31.8c228.8 0 414.3 185.8 414.3 415s-185.4 415-414.3 415c-228.7 0-414.2-185.9-414.2-415.1s185.5-414.9 414.2-414.9v0zM315.6 464.6c0.6 1.4 1.3 2.4 1.8 3 0.2 0.4 0.4 0.8 0.6 1.2 1.2 2.2 2.7 5.1 5.4 8l0.2 0.1c0.2 0.2 0.3 0.3 0.5 0.4 0.5 0.8 1.1 1.5 1.8 2.1l242.3 233.9c8.7 8.3 20.1 13 32 13 12.7 0 24.5-5.1 33.3-14.2 17.6-18.4 17.1-47.7-1.2-65.4l-208.8-201.3 209.4-198.4c18.5-17.5 19.3-46.8 1.8-65.4-8.7-9.2-20.9-14.4-33.5-14.4-11.9 0-23.1 4.5-31.7 12.6l-244.4 231.5c-14.4 13.6-18.2 35.1-9.5 53.3v0z" />
<glyph unicode="&#xe903;" glyph-name="broadcast" d="M171.9 48l-3.3 0.3c-3.9 0.5-5.7 0.9-7.6 1.4-3.3 1.1-5.4 2-7.4 3.1-11.8 6.6-18.9 18.6-18.9 31.4 0 7.3 2.3 14.4 6.6 20.6l79.5 135.1c6.6 11.2 19 18.2 32.3 18.2 6.5 0 12.9-1.7 18.6-4.9 8.7-4.9 14.8-12.8 17.4-22.3 2.5-9.3 1.1-19-3.8-27.3l-48.9-83.1h457.2c20.5 0 37.2-16.3 37.2-36.3s-16.7-36.3-37.2-36.3h-521.7zM664.2 224.5c-93 0-196.1 29.3-290.3 82.6-129.7 73.3-223.7 180.6-251.3 286.9-14.8 56.8-8.9 109.4 17.1 152.1 38.5 63.2 119.3 99.5 221.8 99.5 45.1 0 92.6-6.8 141.2-20.3v-0.1l2.8-1.2c16.4-3.9 27.9-17.9 27.9-34.1 0-19.4-16.4-35.3-36.7-35.3-5.4 0-10.8 1.3-16.1 3.7-43.3 12.4-84.3 18.6-122.3 18.6-73.9 0-129.1-23.7-155.3-66.7-17.2-28.2-21-63.4-10.9-102 21.9-84.2 105.9-176.3 219.3-240.4 85.8-48.5 176.9-75.2 256.3-75.2 74 0 129.3 23.7 155.6 66.9 39.2 64.2 5.4 162.9-85.9 251.4-8.4 6.9-13.1 16.6-13.1 26.8 0 19.4 16.4 35.2 36.7 35.2 10.6 0 20.8-4.6 27.8-12.5l1.8-2 0.4 0.3c113.1-113.1 150.7-244.2 95.7-334.6-39-63.2-119.9-99.6-222.5-99.6zM532.7 518.6c-6.5 0-12.9 1.7-18.6 4.8-8.7 4.9-14.9 12.8-17.4 22.2-2.4 9.2-1.1 18.8 3.8 27l140.6 236c6.6 11.1 19 18.1 32.3 18.1 6.5 0 13-1.7 18.6-4.8 8.7-4.9 14.8-12.7 17.4-22.1 2.5-9.2 1.1-18.8-3.8-27l-140.6-236.2c-6.6-11.1-19-18-32.3-18z" />
<glyph unicode="&#xe904;" glyph-name="brush" d="M908.5 360.8c0 1.2-0.2 2.2-0.5 4.2v66c-1.1 62.1-51.1 112.7-111.5 112.7h-198.2l23.8 167.6c7.3 38.6-2.8 78.6-27.5 109.6-20.3 26-50.5 40.9-83 40.9-32-0.6-61.8-15.7-81.8-41.3-24.2-29.8-34.4-69-28-107.4l24.8-168.4h-197.6c-60.4 0-110.4-50.8-111.5-113.3v-348.5c0.5-26.1 19.4-46.9 44-49.7v-1.4h696.7c27.3 0 49.2 22.2 49.8 50.7l-0.3 272.4c0.8 2.4 0.8 4.2 0.8 5.9zM776.7 212c-7 6.6-15 9.9-25.2 9.9-8.9 0-17.6-3.7-23.9-10.1-7.1-7.3-10.8-16.7-10.2-25.4v-82h-51.7v82.5c0 9.5-3.3 17.7-9.9 24.6-7 6.6-15 9.9-25.2 9.9-9 0-17.7-3.7-23.9-10.1-7.1-7.3-10.8-16.7-10.2-25.4v-82h-43.1v82.5c0 9.5-3.3 17.7-9.9 24.6-7 6.6-15 9.9-25.2 9.9-9 0-17.7-3.7-23.8-10.1-7.1-7.3-10.8-16.7-10.2-25.5v-82h-46.6v83c0 9.5-3.3 17.7-9.9 24.6-7 6.6-15 9.9-25.2 9.9-9 0-17.7-3.7-23.8-10.1-7.1-7.3-10.8-16.7-10.2-25.5v-82.5h-49.7v83c0 9.5-3.3 17.7-9.9 24.6-7 6.6-15 9.9-25.2 9.9-9 0-17.7-3.7-23.9-10.1-7.1-7.3-10.8-16.7-10.2-25.4v-82.5h-63.8v225.7h656.6v-222.4h-55.7v82c-0.2 9.5-3.5 17.7-10.1 24.5zM497.7 532.5l-28.4 192.4c-3.3 18.2 1.5 37.1 13.1 52 6.8 9.3 17.1 14.4 28.7 14.4 11.4 0 22.4-5.5 29.4-15.1 11.5-14.2 16.2-33.5 13-53l-27.4-192.6c-1.1-13.8 3.8-28.1 13.1-38.3 9.9-10.8 23.6-17 37.6-17h219.5c11 0 21.6-4.4 29.9-12.5 8.1-7.9 12.9-19.4 12.9-30.9v-35h-652.9v34.5c0 11.6 4.6 22.8 12.9 31.4 8.1 7.9 19 12.5 29.9 12.5h219.5c14.2 0 27.8 6.3 37.2 17.2 9.4 10.7 13.7 25.3 12 40z" />
<glyph unicode="&#xe905;" glyph-name="code" d="M861.2 320.6c-12.2 0-23 7.8-26.8 19.5-0.6 2.6-0.8 4.7-0.7 6.9v26l0.1 6.9c0.1 4.9 0.2 9.8-0.2 14.6-0.4 2.2-0.4 5.1 0 8 2.1 13.4 13.3 23.1 26.8 23.1 1.4 0 2.7-0.1 4.1-0.3 9.8-0.2 19.4-6.7 23.7-16.3 1.5-3.6 2.2-7.2 2.3-10.8v-14.7c0-11.8 0.1-23.7-0.1-35.5 0.7-13.8-10.3-26.1-24.5-27-0.9-0.2-2.8-0.4-4.7-0.4 0 0 0 0 0 0zM600 317.6c-8 0-15.6 3.1-21.4 8.8-4.7 4.7-7.2 11.1-7.1 17.6-0.1 6.1 0 12.4 0 18.7v36.7c0.3 14.5 11.7 25.6 25.4 25.6 0.9 0.1 2.1 0.2 3.3 0.2 5.8 0 11.5-1.6 16.5-4.5 7.5-4.8 11.8-13.1 11.5-21.7 0.3-18.2 0.2-36.8 0.1-55.4-0.7-14.3-11.8-25.4-25.9-26-0.6 0-1.5 0-2.4 0zM602 60.8c-1.1 0-2.1 0.1-3.2 0.2 0.6-0.1-0.2-0.1-1.1-0.1-15.9 0.8-27.1 13.2-26.4 27.7 0 0 0 181.4 0 182.3 0.8 14.2 12.5 25.2 26.6 25.2h1.6c-0.1 0.1 0.9 0.1 1.9 0.1 8.1-0.3 14.6-3.3 19.5-8.5 4.8-5.2 7.4-12 7.1-19.1 0.1-60 0.2-120.3 0-180.6 0.1-1.2 0-2.7-0.2-4.2-1.4-13.2-12.6-23-25.8-23v0zM862 60.7c-12.1 0-23.1 7.7-27.3 19-0.8 3-1 5.4-0.8 7.8v121.4c0 20.4-0.1 40.8 0 61.3 0.1 1.6 0.2 2.9 0.5 4.2 2.5 12.6 13.6 21.7 26.4 21.7 1.7 0 3.5-0.2 5.3-0.5 17.2-3.2 24.7-12.4 24.8-31v-45.3c0-43.1 0-86.3-0.1-129.4-0.2-20.3-12.1-25.9-23.8-28.7-2.2-0.4-3.6-0.5-5-0.5v0zM746.9 272.7c-1.8 0-3.6 0.2-5.4 0.5-21.6 4.1-24.2 19.7-24.2 31.1v92.7c-0.9 12.1 7.2 23.6 19.3 27 3.6 0.8 6.8 1.1 9.9 1.1 8.5 0 15.5-2.6 20.4-7.6s7.4-12 7.3-20.7c-0.1-10.7-0.1-21.4 0-32v-32.8c0-11.1 0-22.1 0-33.1-0.1-1.7-0.3-3-0.5-4.2-2.5-12.7-13.8-22-26.8-22v0zM746.9 60.6c-2.1 0-4.3 0.3-6.4 0.8-8.1 1.2-14.3 5-18.4 10.7-4.2 5.8-5.9 12.8-4.8 19.8l-0.1 36c0 30.8-0.1 61.7 0.1 92.5 0.1 20.4 12.4 25.6 25.7 28.2 1.7 0.3 3.3 0.5 5 0.5 15.6-0.7 26.8-12.9 26.2-27.4v-134c0-2.1-0.3-4.2-0.8-6.2-2.9-12.3-13.8-20.9-26.5-20.9v0zM409.9 860.2h-242c-37.1 0-67.1-30-67.1-67.1v-246.2c0-37.1 30-67.1 67.1-67.1h242c37.1 0 67.1 30 67.1 67.1v246.2c0 37.1-30 67.1-67.1 67.1zM421 565.5c0-16-13-29-29-29h-206.2c-16 0-29 13-29 29v209.1c0 16 13 29 29 29h206.2c16 0 29-13 29-29v-209.1zM326.3 736.6h-82.3c-14.1 0-25.5-11.4-25.5-25.5v-82.3c0-14.1 11.4-25.5 25.5-25.5h82.3c14.1 0 25.5 11.4 25.5 25.5v82.3c-0.1 14.1-11.5 25.5-25.5 25.5zM409.9 413.7h-242c-37.1 0-67.1-30-67.1-67.1v-246.2c0-37.1 30-67.1 67.1-67.1h242c37.1 0 67.1 30 67.1 67.1v246.2c0 37.1-30 67.1-67.1 67.1zM421 119c0-16-13-29-29-29h-206.2c-16 0-29 13-29 29v209.1c0 16 13 29 29 29h206.2c16 0 29-13 29-29v-209.1zM326.3 290.2h-82.3c-14.1 0-25.5-11.4-25.5-25.5v-82.3c0-14.1 11.4-25.5 25.5-25.5h82.3c14.1 0 25.5 11.4 25.5 25.5v82.3c-0.1 14.1-11.5 25.5-25.5 25.5zM860.5 860.2h-242c-37.1 0-67.1-30-67.1-67.1v-246.2c0-37.1 30-67.1 67.1-67.1h242c37.1 0 67.1 30 67.1 67.1v246.2c0 37.1-30 67.1-67.1 67.1zM871.6 565.5c0-16-13-29-29-29h-206.2c-16 0-29 13-29 29v209.1c0 16 13 29 29 29h206.2c16 0 29-13 29-29v-209.1zM776.8 736.6h-82.3c-14.1 0-25.5-11.4-25.5-25.5v-82.3c0-14.1 11.4-25.5 25.5-25.5h82.3c14.1 0 25.5 11.4 25.5 25.5v82.3c0 14.1-11.4 25.5-25.5 25.5z" />
<glyph unicode="&#xe906;" glyph-name="courseware" d="M361.2 520.5c-15.9 0-28.9 13.5-28.9 30.2 0 16.9 12.7 30.2 28.9 30.2h293.2c16.2 0 28.9-13.3 28.9-30.2s-12.7-30.2-28.9-30.2h-293.2zM276 52.5c-21 0-40.7 8.5-55.5 23.9-14.8 15.3-23.1 35.8-23.5 57.6v624.2c0.4 23.3 8.8 43.8 23.5 59.1 14.9 15.4 34.6 23.9 55.5 23.9h453.3c16.2 0 28.9-13.3 28.9-30.2 0-1.7-0.1-3.4-0.5-5.1l0.1-69.4h42.4c16.2 0 28.9-13.3 28.9-30.2-0.1-1.7-0.2-3.2-0.4-4.6v-618.9c0-16.1-12-29.4-27.4-30.2h-525.3zM254.7 135.4c0-12.2 9.4-22.1 20.9-22.1h495.3v561.9h-494.9c-7.3 0-14.4 1-21.3 3.1v-542.9zM276 780.7c-11.5 0-20.9-9.9-20.9-22.2s9.4-22.1 20.9-22.1h424.1v44.3h-424.1z" />
<glyph unicode="&#xe907;" glyph-name="discuss" d="M838.8 374.3c19.9 40.4 30 83.3 30 127.6 0.6 79.5-32.1 156.1-92.1 215.8-72 71.6-176.4 112.6-286.7 112.6-101.4 0-196.8-33.9-268.6-95.5-34.9-30-62.4-65-81.6-104-19.9-40.4-30-83.4-30-127.6 0-53.5 15.6-106.8 45-154.1 26.9-43.2 65.4-81.6 111.4-111.1l3.8-2.5v-95.4c0-16.4 11.5-28.3 27.3-28.3 6.4 0 11.9 2.4 13.9 3.3l100.2 65.9 3.4-0.6c27.5-5 54-5.7 74-5.7 101.4 0 196.7 33.9 268.5 95.5 34.8 30.2 62.3 65.1 81.5 104.1zM490 242.1c-20.3 0-42.4 2.1-68.1 6.6l-10.7 2.6c-2.1 0.4-4.2 0.6-6.4 0.6-6.3 0-12.6-1.9-18.8-5.5l-10-7-38-25v39.5c0 11.9-6.8 23.4-17.4 28.9l-13.2 7.8c-82 48.3-131 127.3-131 211.2 0 143.3 140 259.8 312.1 259.8 172 0 312-116.5 312-259.9 0.5-60.4-25-119.4-72-166.2-59.5-59.3-146.5-93.4-238.5-93.4zM323 545c-28.5 0-51.8-22.9-51.8-51.1 0-28.1 23.3-51 51.8-51s51.7 22.9 51.7 51c0 28.2-23.1 51.1-51.7 51.1zM492.7 545c-28.5 0-51.7-22.9-51.7-51.1 0-28.1 23.2-51 51.7-51s51.6 22.9 51.6 51c0.1 28.2-23.1 51.1-51.6 51.1zM656.9 545c-28.5 0-51.6-22.9-51.6-51.1 0-28.1 23.1-51 51.6-51s51.8 22.9 51.8 51c0 28.2-23.3 51.1-51.8 51.1zM913.7 341c-0.2 1.1-0.3 2.1-0.5 3.2-1.6 9.2-4 18.3-7.1 27.2-0.5 1.2-0.9 2.4-1.3 3.6-0.7 1.9-1.2 3.9-2 5.8-0.1-0.2-0.2-0.5-0.3-0.7-6.9 17.2-16.1 33.9-28.3 49.4l-10.7 12.9-3.4-12.9c-5.6-21.1-13.8-41.8-24.2-61.6l-1.5-2.9 2.7-5.8c6.8-15.7 10.4-32.2 10.4-49 0-10.4-1.6-20.7-4.3-30.7-2-7.6-4.8-15-8.2-22.2-0.8-1.7-1.8-3.3-2.6-5-3.2-6-6.9-11.8-11-17.3-1-1.3-1.8-2.6-2.8-3.9-4.9-6.2-10.6-12-16.8-17.4-1.6-1.5-3.4-2.9-5.1-4.3-6.6-5.5-13.6-10.7-21.4-15.3l-7.7-4.5c-6.6-3.5-11-11-11-19.6v-15.7l-13.2 8.8-9.1 6.2c-3.9 2.3-8 3.5-12.1 3.5-1.5 0-2.8-0.1-4.2-0.4l-6.4-1.5c-3.7-0.6-7-1.1-9.5-1.3-0.6 0-1.4-0.2-1.9-0.2-0.3 0-0.6 0-0.9 0.1-7.5-3.6-15.2-6.7-22.9-9.9-7.5-3-16.3-6.4-26.3-9.9-0.9-0.3-1.7-0.6-2.5-0.9-6.8-2.4-14.2-4.7-21.8-7-21.2-6.1-42.8-10.9-65.1-14.1 0 0 0.1-0.1 0.2-0.1 0 0 0 0 0 0 7.2-3.3 14.7-6.1 22.2-8.8 1.5-0.5 3-1.3 4.5-1.8 7.8-2.6 15.8-4.6 23.8-6.5 1.5-0.3 2.9-0.9 4.4-1.2 7.9-1.7 16-2.9 24.1-3.9 1.7-0.2 3.4-0.6 5.1-0.8 9.8-1 19.8-1.6 29.9-1.6 12.2 0 28.3 0.4 44.8 3.2l3.4 0.6 62.4-41c1.5-0.7 5.3-2.4 9.9-2.4 11.1 0 19.7 8.9 19.7 20.3v58.6l3.8 2.5c60.8 40 97 102.6 97 167.5 0.3 9.5-0.6 19.2-2.2 28.7z" />
<glyph unicode="&#xe908;" glyph-name="double-screen" d="M854.3 762.7h-245.7c-40.6 0-73.7-32.7-73.7-72.9v-486.1c0-40.2 33.1-72.9 73.7-72.9h245.7c40.6 0 73.7 32.7 73.7 72.9v486.1c0.1 40.2-33 72.9-73.7 72.9zM862.5 237.3c0-24.4-20.1-44.3-44.7-44.3h-172.7c-24.7 0-44.7 19.9-44.7 44.3v418.9c0 24.4 20.1 44.3 44.7 44.3h172.6c24.7 0 44.7-19.9 44.7-44.3v-418.9zM417.5 762.7h-245.8c-40.7 0-73.7-32.7-73.7-72.9v-486.1c0-40.2 33.1-72.9 73.7-72.9h245.7c40.7 0 73.7 32.7 73.7 72.9v486.1c0.1 40.2-32.9 72.9-73.6 72.9zM425.7 237.3c0-24.4-20.1-44.3-44.7-44.3h-172.7c-24.7 0-44.8 19.9-44.8 44.3v418.9c0 24.4 20.1 44.3 44.8 44.3h172.6c24.7 0 44.7-19.9 44.7-44.3v-418.9z" />
<glyph unicode="&#xe909;" glyph-name="enlarge" d="M142.5 526.4c-9.7 0-18.7 3.6-25.5 10.1-6.9 6.6-10.7 15.3-10.6 24.6v236.6c-0.1 9.3 3.7 18 10.6 24.6 6.8 6.5 15.9 10.1 25.4 10.1h266.6c20 0 36.3-15.6 36.3-34.7s-16.3-34.7-36.3-34.7h-230.5v-201.8c0.1-9.4-3.7-18.1-10.6-24.7-6.8-6.5-15.8-10.1-25.4-10.1zM617 60.9c-20 0-36.3 15.6-36.3 34.7s16.3 34.7 36.3 34.7h230.5v201.9c0 12.4 7 23.9 18.2 30 5.5 3 11.7 4.5 18 4.5s12.5-1.6 17.9-4.5c11.2-6.1 18.1-17.6 18.1-30v-236.6c0-9.3-3.8-18.1-10.6-24.6s-15.9-10.1-25.4-10.1v0h-266.7zM607.9 500.9c-9.5 0-18.8 3.7-25.4 10.1-6.9 6.6-10.6 15.3-10.6 24.7s3.8 18.1 10.6 24.7l213.1 202.9h-143c-20 0-36.3 15.6-36.3 34.7s16.3 34.7 36.3 34.7h230.9c9.7 0 18.8-3.6 25.6-10.1 6.9-6.5 10.7-15.3 10.7-24.6l-0.1-219.8c0.1-19.1-16.1-34.7-36.1-34.8-20 0.1-36.2 15.6-36.1 34.7v136.5l-214.1-203.7c-6.7-6.4-15.9-10.1-25.3-10.1h-0.2zM142.4 60.9c-4.8 0-9.5 0.9-14 2.8l-3.3 2.3c-4.4 2.4-6.7 3.6-8.1 5-0.6 1.1-1.1 2.1-1.9 2.9-2.5 2.8-4.7 5.6-6 8.4-1.9 4.6-2.8 9-2.7 13.3v219.8c-0.3 12.7 6.6 24.5 17.9 30.8 5.5 3.1 11.8 4.7 18.2 4.7 6.5 0 12.8-1.6 18.2-4.7 11.4-6.3 18.2-18.1 17.9-30.8v-136.4l214 203.6c6.8 6.4 15.9 9.9 25.5 9.9 3.2 0 6.3-0.4 9.4-1.2 12.5-3.2 22.3-12.6 25.6-24.5 3.4-12-0.3-24.9-9.5-33.6l-213.3-202.8h142.9c9.6 0 18.7-3.6 25.5-10.1s10.7-15.5 10.6-24.6c0.1-9.2-3.8-18.2-10.6-24.7-6.6-6.3-15.8-10-25.2-10h-231.1z" />
<glyph unicode="&#xe90a;" glyph-name="file" d="M194.9 117.8l-4.7 1c-27.7 3.4-49 28-49 56.9v542.6c0 31.7 25.3 57.5 56.5 57.5h278.4c12.6 0 24.2-6.8 30.4-17.8l15.8-29.4 231.8 0.1c26.4 0 58.3-30.8 58.3-69.1v-72.7h2.8c38.4-0.6 69.6-31.5 69.6-69v-219.5c0-9-3.6-17.4-10.1-23.8s-15.2-9.9-24.4-9.9c-2.9 0-5.9 0.4-8.9 1.1-14.8 3.6-25.5 17.9-25.5 34.1v183.2c0 20.3-16.8 36.8-37.5 36.8h-200.3c-12.5 0-24.2 6.8-30.3 17.8l-83.5 154.4c-5.4 10.3-16.2 16.7-28.3 16.7h-194.2c-17.5 0-31.7-14-31.7-31.2v-460.8c0-17.2 14.2-31.1 31.7-31.1h608.3c19.1 0 34.7-15.2 34.7-33.9s-15.6-33.9-34.7-33.9h-655.2zM743.5 586.8v47.6c0 14.8-12.7 27.2-27.8 27.2h-157.2l40.4-74.9h144.6z" />
<glyph unicode="&#xe90b;" glyph-name="lamp" d="M935 524.5h-25.7c-18.2 0-33-14.7-33-32.9s14.7-32.9 33-32.9h25.7c18.2 0 33 14.7 33 32.9-0.1 18.2-14.8 32.9-33 32.9zM798.3 756.7l-18.1-18.1c-12.9-12.9-12.9-33.7 0-46.6s33.7-12.8 46.6 0l18.1 18.1c12.9 12.9 12.9 33.7 0 46.6-12.9 12.8-33.7 12.8-46.6 0zM117.9 524.5h-25.7c-18.2 0-33-14.7-33-32.9s14.7-32.9 33-32.9h25.7c18.2 0 33 14.7 33 32.9-0.1 18.2-14.8 32.9-33 32.9zM200.5 691.9c12.9-12.9 33.7-12.9 46.6 0s12.8 33.7 0 46.6l-18.1 18.1c-12.9 12.9-33.7 12.9-46.6 0s-12.8-33.7 0-46.6l18.1-18.1zM513.6 766.3c-90.3 0-175.1-35.1-238.9-98.8s-99-148.5-99-238.6c0-63.7 17.9-125.7 51.6-179.3 31.9-50.7 76.7-92 129.7-119.7l6.5-19.3c3.8-11.4 14.5-19 26.5-19h247.2c12 0 22.7 7.7 26.5 19l6.5 19.3c53 27.7 97.8 69 129.7 119.7 33.8 53.7 51.6 115.7 51.6 179.3 0 90.1-35.1 174.8-99 238.6s-148.7 98.8-238.9 98.8zM513.6 162.5c-147.1 0-266.8 119.5-266.8 266.4s119.7 266.4 266.8 266.4c147.1 0 266.8-119.5 266.8-266.4s-119.7-266.4-266.8-266.4zM584.7 68.8h-142.3c-19.6 0-35.5-15.9-35.5-35.5s15.9-35.5 35.5-35.5h142.3c19.6 0 35.5 15.9 35.5 35.5 0.1 19.6-15.9 35.5-35.5 35.5zM513.5 804.5c18.2 0 32.9 14.7 32.9 33v25.6c0 18.2-14.7 33-32.9 33s-32.9-14.7-32.9-33v-25.7c0-18.2 14.7-32.9 32.9-32.9z" />
<glyph unicode="&#xe90c;" glyph-name="launch" d="M746.8 105.8l-208.4 102.1c-15.5 7.6-22 26.4-14.4 42 3.7 7.5 10.1 13.2 18 15.9s16.5 2.2 24-1.5l170.8-83.8 73.8 504.7-332.2-398.4v-185.1c0-17.3-14-31.4-31.4-31.4s-31.4 14-31.4 31.4v195.4c0 1.6 0.1 3.3 0.3 4.9 0.7 6.1 3.2 11.9 7.1 16.6l313 375.2-501.7-260.1 118.2-61.3c15.5-8.2 21.7-27.1 14-42.8-3.6-7.3-9.8-12.8-17.5-15.4s-16-2.1-23.3 1.4l-171.1 89c-6.5 3.4-11.6 8.9-14.6 15.6-3.9 7.3-4.7 15.8-2.3 23.7s7.9 14.5 15.1 18.3l689.5 357.5c4.6 2.4 9.7 3.6 14.9 3.5 15.4 0.3 28.7-10.5 31.4-25.6 1.1-5 0.9-10.2-0.6-15.2l-95.5-652.7c-2-14.1-13.2-24.7-26.6-26.7-6.3-1.2-13.1-0.2-19.1 2.8v0z" />
<glyph unicode="&#xe90d;" glyph-name="mobile" d="M720.8 842.6h-415.6c-49.2-0.1-89-40.9-89.1-91.4v-609c0-50.4 39.9-91.3 89.1-91.3h415.6c49.2 0.1 89 40.9 89 91.3v609c0 50.5-39.8 91.4-89 91.4zM750.5 142.3c-0.1-16.7-13.4-30.3-29.7-30.3h-415.6c-16.4 0-29.7 13.6-29.7 30.4v106.5h467.6c2.6 0.2 5 0.7 7.4 1.5v-108.1zM750.5 308.2c-2.4 0.9-4.8 1.4-7.4 1.5h-467.6v441.6c0.1 16.8 13.4 30.4 29.7 30.4h415.6c16.4 0 29.6-13.6 29.7-30.4v-443.1zM535.3 212.3c-13.8 8.2-30.8 8.2-44.6 0s-22.3-23.2-22.3-39.6c0-25.2 19.9-45.7 44.6-45.7 24.6 0 44.5 20.4 44.5 45.7 0 16.3-8.4 31.4-22.2 39.6zM514.3 569.6c-31.8 0-61.8-14.8-81.7-40.3-9.2-12.6-7-30.4 4.9-40.2 12-9.8 29.4-8.2 39.4 3.8 9.3 11.1 22.9 17.5 37.2 17.5s27.9-6.4 37.2-17.5c5.3-7 13.5-11 22.1-11.1 6.5 0.1 12.8 2.4 17.9 6.4 5.9 4.8 9.7 11.9 10.6 19.6s-1.3 15.4-6.1 21.5c-19.6 25.4-49.7 40.3-81.5 40.3zM514.2 677.1c-63.8 0-124.2-29.7-164.1-80.8-9.9-12.6-7.9-31.1 4.4-41.2s30.3-8.1 40.2 4.5c29.1 37.4 73.1 59.1 119.7 59.1s90.6-21.8 119.7-59.1v0.3c5.4-7 13.5-11 22.2-11.1 6.4 0.1 12.8 2.4 17.9 6.4 5.9 4.9 9.7 11.9 10.5 19.6s-1.5 15.4-6.2 21.4c-40.1 51.2-100.5 80.9-164.3 80.9z" />
<glyph unicode="&#xe90e;" glyph-name="more" d="M196.7 525.9c-43.6 0-79.1-35.4-79.1-79.1s35.4-79.1 79.1-79.1c43.7 0 79.1 35.4 79.1 79.1 0 43.6-35.5 79.1-79.1 79.1zM513 525.9c-43.7 0-79.1-35.4-79.1-79.1s35.4-79.1 79.1-79.1c43.6 0 79 35.4 79 79.1 0 43.6-35.4 79.1-79 79.1zM829.3 525.9c-43.7 0-79.1-35.4-79.1-79.1s35.4-79.1 79.1-79.1c43.7 0 79.1 35.4 79.1 79.1 0 43.6-35.4 79.1-79.1 79.1z" />
<glyph unicode="&#xe90f;" glyph-name="pc" d="M888.9 99h-748.1c-4.3 0-9.3 0-14 2.4-9.1 1.9-17.8 8.4-23.2 17.6-5.8 9.9-7.2 21.5-3.8 32.6l63.2 221.2-0.1 384.7c0.1 22.7 18.5 41.1 41.2 41.2h617.4c22.7 0 41.2-18.5 41.2-41.2v-387.6l63.1-220.3c2.3-4.5 2.3-9.2 2.3-15.7 0-9.4-3.8-18.2-10.6-24.9-6.6-6.5-15.4-10.2-24.8-10.2-1.3 0-2.6 0.1-3.8 0.2zM859.4 160.3l-42.4 147.3h-604.2l-42.4-147.3h161.7l18.4 77.5c2.4 11.8 11.9 19.4 24.2 19.4h257.1c12.3 0 21.8-7.6 24.2-19.4l18.4-77.5h185zM611 160.3l-9.2 44.1h-195l-9.2-44.1h213.4zM799.3 375.2v360.1h-573v-360.1h573z" />
<glyph unicode="&#xe910;" glyph-name="pen" d="M136.3 34.7c-15.2 0-23.6 6.3-27.9 11.7-5.1 6.2-10.2 17.7-6.1 37.7l41.5 220c2 10.9 7.3 20.8 15.2 28.7l506.6 506.2c13.1 13 28.4 20 44.3 20s31.3-6.9 44.4-19.9l151-151c26.5-26.5 26.5-62.1 0.1-88.7l-506.4-506.5c-7.9-7.9-17.8-13.1-28.8-15.2l-219.9-41.4c-5.2-1.1-9.8-1.6-14-1.6zM207 258.1c-4.9 0-9.1-3.6-9.6-8.5l-26.8-129.2c-0.6-4.5 0.7-8.8 3.6-12s6.9-5.1 11.2-5.1l130.7 28c3.5 0.4 6.5 2.9 7.7 6.4s0.3 7.4-2.3 10l-107.7 107.5c-1.8 1.9-4.2 2.9-6.8 2.9zM571.9 641.9c-3.2 0-6.2-1.3-8.5-3.5l-308.7-308.6c-4.7-4.7-4.7-12.3 0-17l124.3-124.2c2.3-2.3 5.3-3.5 8.5-3.5s6.2 1.3 8.5 3.5l446.9 446.8c4.7 4.7 4.6 12.3 0 17l-124.4 123.9c-2.3 2.3-5.3 3.5-8.5 3.5s-6.2-1.2-8.5-3.5l-71.8-71.7c-2.3-2.3-3.5-5.3-3.5-8.5s1.2-6.2 3.5-8.5l69.5-69.4c6.6-6.6 10.2-15.3 10.2-24.6s-3.6-18.1-10.2-24.7c-6.6-6.6-15.4-10.2-24.7-10.2s-18 3.6-24.6 10.2l-69.6 69.6c-2.2 2.1-5.2 3.4-8.4 3.4z" />
<glyph unicode="&#xe911;" glyph-name="people" d="M889.8 90.7c-21.1 0-38.3 17.2-38.3 38.2l0.4 3.4-0.6 0.1c-0.5 66.4-24.7 126.7-68.4 173l0.1 0.1-1.9 2.4c-7.1 7-11 16.2-11 26.1 0 20.2 16.5 36.6 36.6 36.6 9.9 0 19.1-3.9 26.1-11l2.1-2.2 0.1 0.1c60-61.2 93-142 93-227.7 0-22-17.2-39.1-38.2-39.1zM315.4 90.7c-21 0-38.2 17.2-38.2 38.2v3l-0.3 0.1c0.9 126.7 76.1 242 192 294.3l4.4 2-3.7 3.1c-48.8 40-76.8 99-76.8 162 0 115.5 94.1 209.5 209.7 209.5s209.6-94 209.6-209.5c0-115.2-93.8-209.2-209-209.5h-2.9v-0.1c-136.6-1.6-246.7-113.7-246.7-251.2l0.1-3.1c0-21.7-17.2-38.8-38.2-38.8zM602.4 731.8c-76.3 0-138.3-62-138.3-138.2s62.1-138.2 138.3-138.2c76.2 0 138.2 62 138.2 138.2s-61.9 138.2-138.2 138.2zM131.6 153.8c-18.5 0-33.6 15-33.6 33.5l-0.1 3c0.7 115.2 67 213.8 173.3 257.6l4.8 2-4.1 3.2c-43.5 33.3-68.5 83.3-68.5 137.2 0 67.8 40.6 129.8 103.4 158 6.7 3 13.2 4.5 19.3 4.5 18.7 0 28.8-13.5 31.8-25 5.6-21.9-8.5-34-8.7-34.1-46.3-12.5-79.4-55.5-79.4-103.9 0-40.4 22.6-77.2 59-96 11.5-5.9 25.6-18 27.8-41.9 1.6-17.2-2.7-48.2-29-55.5-94.2-26-159.6-108.1-162.9-204.3l0.5-4.8c0-18.5-15-33.5-33.6-33.5z" />
<glyph unicode="&#xe912;" glyph-name="pick" d="M884.2 70.1c0-0.6 0.1-1.2 0.1-1.8h-0.3c-1.4-20.4-18.4-36.5-39.3-36.5s-37.9 16.1-39.3 36.5h-0.6c0 1 0.1 1.9 0.1 2.9 0 79.1-31.8 150.8-83 203.3l0.1 0.1c-7.1 6.8-11.5 16.4-11.5 26.9 0 20.8 17.1 37.7 38.1 37.7 11.2 0 21.2-4.9 28.2-12.5 65.1-65.2 105.9-154.4 107.4-253 0.1-0.9 0.3-1.8 0.3-2.7-0.2-0.3-0.3-0.6-0.3-0.9v0zM512.9 358.6c-10.7 0-21.2 0.9-31.6 2.1-146.2-15.7-260.1-139.3-260.2-289.4 0-0.1 0.1-0.2 0.1-0.3 0 0 0-0.1 0-0.1 0-0.9 0-1.7 0.1-2.6h-0.4c-1.4-20.4-18.4-36.5-39.3-36.5s-37.8 16.1-39.3 36.5h-0.5c0 151.1 92.1 280.8 223.7 337.4-64.5 45.6-106.6 120.1-106.6 204.5 0 138.9 113.7 251.6 254 251.6 140.4 0 254.1-112.7 254.1-251.6 0-139-113.7-251.6-254.1-251.6v0zM512.9 784.7c-97.1 0-175.8-78-175.8-174.2s78.7-174.2 175.8-174.2c97.1 0 175.9 78 175.9 174.2 0.1 96.2-78.7 174.2-175.9 174.2v0z" />
<glyph unicode="&#xe913;" glyph-name="record" d="M563.4 641.2c0.1-7.7-2.8-15-8.3-20.4-5.4-5.4-12.8-8.4-20.4-8.3h-287.8c-7.6-0.1-15 2.9-20.4 8.3s-8.4 12.7-8.3 20.4c0 16.3 12.9 28.7 28.7 28.7h287.9c16.2 0 28.6-13 28.6-28.7v0zM495.1 498.7c0-15.8-12.4-28.2-28.7-28.7h-220c-7.6-0.1-15 2.9-20.4 8.3s-8.4 12.7-8.3 20.4c0 16.3 12.9 28.7 28.7 28.7h220c16.2 0 28.6-12.9 28.7-28.7v0zM246.9 385.3h113.8c16.2 0 28.7-12.4 28.7-28.7 0.1-7.6-2.9-15-8.3-20.4s-12.7-8.4-20.4-8.3h-113.8c-7.7-0.1-15 2.8-20.4 8.3-5.4 5.4-8.4 12.8-8.3 20.4 0 16.3 12.9 28.7 28.7 28.7v0zM744.7 267.7c18.2 0 29.7-12.5 29.7-30.1 0-17.7-11.5-29.6-29.7-29.6h-107.6c-17.7 0-29.6 11.4-29.6 29.6v89.9c0 17.7 12 29.6 29.6 29.6 17.7 0 29.7-11.5 29.7-29.6v-59.8h77.9zM447.2 91.7c16.3 0 28.7-12.4 28.7-28.7 0.1-7.6-2.9-15-8.3-20.4s-12.7-8.4-20.4-8.3h-215.6c-68.4 0-123.4 55.9-123.4 124.3v577.3c0 68.4 55 124.3 123.4 124.3h419.4c65.9-0.2 120.1-51.9 123.4-117.6v-157.8c0.1-7.6-2.9-15-8.3-20.4s-12.7-8.4-20.4-8.3c-7.6-0.1-15 2.9-20.4 8.3s-8.4 12.7-8.3 20.4v151.6c0 36.8-29.7 66.7-66.5 67h-418.9c-36.8-0.3-66.4-30.2-66.5-67v-578.2c0.1-36.8 29.7-66.6 66.5-66.9h215.7v0.4zM679.7 509.7c131.5 0 238.2-107.1 238.2-238.2s-107.2-238.1-238.2-238.1c-131.5 0-238.2 107.1-238.2 238.1s106.6 238.2 238.2 238.2v0zM679.7 90.8c99.5 0 181.3 81.3 181.3 181.2 0 100-81.8 181.3-181.3 181.3-100.1-0.2-181.2-81.3-181.3-181.3 0-100 81.8-181.2 181.3-181.2v0z" />
<glyph unicode="&#xe914;" glyph-name="return" d="M571.5 609.3c-4.1 0.7-8.2 1.2-12.4 1.6v93.9c0 54.7-27.6 79.8-53.4 85-3.5 0.8-6.5 0.9-8.7 0.9-0.3 0-4.2 0.2-5.8 0.2-2.5 0-5-0.2-7.2-0.5-13.8-1.9-27.5-8.3-40.7-19l-308-250.2c-3.3-2.7-6.1-5.6-8.4-8.6-2.5-2.6-6.1-6.3-9.2-10.3-2.7-3.3-4.9-6.8-7.3-11.1-2.9-5-5.2-10.3-7.6-17.1l-2.1-6.5c-0.9-3.3-1.5-6.8-1.8-10.6l-0.6-6c-0.2-3.5-0.2-6.9 0-12l0.6-5.8 1.2-8.5c1-4.1 2.4-8 4.5-13.2 1.3-3.2 2.6-6.6 4.2-9.5 2.8-5.6 6.2-10.9 10.8-16.6 3.3-4.4 8.4-11 15.6-16.7l306-247.8c14.6-12 31.1-18.4 47.5-18.4 9.7 0 18.9 2.2 27.1 6.4 26.4 12.9 42.9 43.1 42.9 78.8v101.1h12.6c14.8 0 29.4-0.8 43.2-2.4 2.1-0.2 4.1-0.6 6.3-1l24.1-4.3c3.6-0.6 6.9-1.2 10.1-1.9 1.9-0.5 3.9-1.1 5.9-1.7l20-6.2c4.1-1.3 8-2.4 12.1-4 1.3-0.5 13.5-6.2 13.5-6.2 7.1-3.1 14.6-6.5 21.8-10.4 1.4-0.8 13.6-8.6 13.6-8.6 6.6-4.2 12.9-8.1 18.6-12.6l7.2-6.3c8.1-6.8 15.8-13.2 25.3-23.4 17.6-18.7 33.5-40.7 47.6-65.9 16-26.2 34.8-30.1 44.6-30.1 1.8 0 3.5 0.1 4.7 0.3 18.9 1.5 39.3 17.2 39.3 48-2.4 192.1-156 428.4-357.7 457.2zM809.2 277.9c-2.1 1.9-4.5 4-6.7 5.6-9.3 7.2-19.1 13.4-28.2 18.9l-3.8 2.4c-2.7 1.9-5.4 3.6-8.9 5.6-8.7 4.8-18 9-26.9 13l-9.6 4.4c-2.5 1.1-5.1 2.3-7.7 3.3-6.3 2.4-13.2 4.7-21.5 7.1l-12.6 3.9c-4.1 1.3-8.3 2.6-12.5 3.5-6.3 1.6-12.9 2.7-20 3.8l-13.6 2.4c-4.6 0.8-9.8 1.7-15.2 2.3-17.1 2-33.6 2.9-50.6 2.9h-80.4v-169.4c0-8-2.1-13.5-3.7-16.1-1 0.5-2.2 1.3-3.6 2.5l-306.6 248.2c-0.8 0.6-2.6 2.9-5.9 7-1 1.3-2 3.3-3.8 6.8l-1.2 2.3-0.5 7.7 0.1 2.6 1 3.6c0.6 1.6 1.3 3.2 2.2 4.8 0.8 1.4 1.4 2.3 2.7 4 0.3 0.4 1.3 1.4 2.3 2.4l312.5 254.8c1.3 1.1 2.4 1.9 3.4 2.4 0.9-3.2 1.9-8.4 1.9-16.1v-160.5h39.1c10.8 0 21-0.7 31.5-2.3 68.1-9.6 136.8-51.9 193.4-118.9 45.2-53.5 78.3-118.2 94.7-184.1-2.4 2.7-10.6 11.8-10.6 11.8-9.6 9.7-20.1 18.6-30.7 27.4z" />
<glyph unicode="&#xe915;" glyph-name="revoke" d="M925.1 451.4l-0.6 5.3c-0.3 3.9-0.9 7.3-1.9 11.1l-2 6.1c-2.3 6.7-4.7 12-7.5 16.8-2.4 4.3-4.7 7.7-7.2 10.9-3.1 4.1-6.7 7.8-8.7 9.9-2.7 3.5-5.5 6.3-8.8 9l-305.8 248.3c-13.1 10.6-26.7 17-40.4 18.9-2.2 0.3-4.6 0.5-7.1 0.5-1.6 0-3.2-0.1-5.1-0.2-1.8 0-5.2 0-9.1-0.8-25.6-5.2-53-30.1-53-84.3v-93.2c-4.1-0.4-8.1-1-12.2-1.6-200.2-28.6-352.5-262.9-354.9-453.4 0-30.5 20.2-46 38.6-47.4 1.6-0.2 3.3-0.4 5-0.4 9.7 0 28.4 3.9 44.5 30.2 13.7 24.5 29.5 46.3 47 64.9 9.3 9.9 16.7 16.2 25.1 23.3l6.9 6c5.9 4.7 12.2 8.6 19 12.9l8.8 5.6c1.7 1.2 3 2 4.3 2.7 7.1 3.9 14.6 7.2 21.8 10.4l9.4 4.4c1.3 0.6 2.5 1.2 3.8 1.7 3.8 1.5 7.5 2.6 12.2 4l16 4.9c0 0 7.5 2.4 9.3 2.8 3.3 0.7 6.6 1.3 10.2 1.9l23.9 4.2c2.2 0.4 4.2 0.8 6.3 1 13.7 1.5 28.1 2.3 42.8 2.3h12.5v-100.2c0-35.4 16.3-65.4 42.4-78.1 8.3-4.3 17.4-6.5 27-6.5 16.3 0 32.6 6.3 47.1 18.2l303.5 245.8c7.3 5.7 12.3 12.2 15.5 16.5 4.6 5.8 8 11 10.7 16.4 1.7 3.1 3 6.4 4.2 9.6 2.1 5.2 3.6 9 4.7 13.9l1.1 7.8 0.6 6.1c0.3 4.5 0.3 7.8 0.1 11.8zM535.3 189.7v168h-79.7c-16.6 0-33-0.9-50.2-2.9-5.3-0.6-10.5-1.5-15.1-2.3l-14.8-2.6c-6.1-1-12.4-2-18.2-3.5-4.1-0.9-8.1-2.1-14.3-4l-10.7-3.3c-8.4-2.4-15.2-4.7-21.4-7.1-2.6-1-5.2-2.1-8.8-3.8l-9-4.1c-8.7-3.9-17.7-8-26.1-12.6-3.3-1.9-6.1-3.7-8.5-5.3l-4-2.5c-9.2-5.6-18.9-11.7-27.8-18.7-2.4-1.7-4.7-3.8-6.7-5.6-10.6-8.9-21-17.7-30.8-27.9 0 0-7.7-8.5-10.1-11.2 16.2 65.4 49.1 129.5 93.9 182.6 56.2 66.5 124.3 108.4 191.9 118 10.5 1.5 20.7 2.3 31.2 2.3h38.8v159.4c0 7.7 1 12.8 1.9 15.9 0.9-0.6 2.1-1.4 3.4-2.5l310.3-253.2 2.6-3c0.5-0.6 1.1-1.5 1.8-2.8 0.8-1.6 1.6-3.2 2-4.4l1-2.9 0.3-2.9-0.1-6.8-1.3-3.4c-1.9-3.9-2.9-5.9-5.4-8.9-1.6-2-3.6-4.6-4.8-5.5l-304-246c-1.4-1.2-2.7-2-3.7-2.5-1.5 2.5-3.6 8-3.6 16z" />
<glyph unicode="&#xe916;" glyph-name="round" d="M513.7 860.2c228.8 0 414.2-185.5 414.2-414.2 0-228.8-185.4-414.2-414.2-414.2-228.7 0-414.2 185.4-414.2 414.2 0 228.7 185.5 414.2 414.2 414.2z" />
<glyph unicode="&#xe917;" glyph-name="screen" d="M546.1 324.2c-18.3 18.4-48 18.4-66.3 0l-128.8-129.9c-13.4-13.5-17.4-33.7-10.2-51.5 7.3-17.7 24.2-29.1 43.3-29.1h257.8c19 0 36 11.4 43.3 29.1s3.3 37.9-10.2 51.5l-128.9 129.9zM583.6 177.5h-141.2c-6.8 0-10.3 8.3-5.4 13.2l70.6 71.2c3 3 7.8 3 10.8 0l70.6-71.2c4.8-4.9 1.4-13.2-5.4-13.2zM769.9 498.5c-68.8 69.2-160 107.4-256.9 107.4s-188.2-38.1-256.9-107.4l-5.6-5.6 42.6-42.9 5.6 5.6c57.3 57.8 133.4 89.6 214.3 89.6 80.8 0 157-31.8 214.3-89.6l5.6-5.6 42.6 42.9-5.6 5.6zM393 360.6c32.1 32.4 74.7 50.2 120 50.2s88-17.8 120.1-50.2l5.6-5.6 42.6 42.9-5.6 5.6c-43.4 43.8-101.2 68-162.6 68-61.3 0-119.1-24.2-162.7-68l-5.6-5.6 42.6-42.9 5.6 5.6zM808.6 779.9h-591.1c-64.1 0-116.1-52.4-116.1-117v-361.6c0-64.6 52-117 116.1-117h19.7c17.5 0 31.6 14.3 31.6 31.9s-14.2 31.9-31.6 31.9h-19.8c-29.2 0-52.8 23.8-52.8 53.2v361.6c0 29.4 23.6 53.2 52.8 53.2h591.1c29.1 0 52.7-23.8 52.7-53.2v-361.6c0-29.4-23.6-53.2-52.7-53.2h-19.7c-17.5 0-31.6-14.3-31.6-31.9s14.2-31.9 31.6-31.9h19.7c64.1 0 116.1 52.4 116.1 117v361.6c0 64.5-52.1 117-116 117z" />
<glyph unicode="&#xe918;" glyph-name="screen-1" d="M730 162.3h-434.6c-19 0-34.5-15.3-34.5-34.1s15.5-34.1 34.5-34.1h434.6c19 0 34.5 15.3 34.5 34.1s-15.4 34.1-34.5 34.1zM851.1 799.5h-676.2c-42.4 0-76.9-34.2-76.9-76.1v-453.9c0-42 34.5-76.1 76.9-76.1h676.2c42.4 0 76.9 34.2 76.9 76.3v453.7c0 42-34.5 76.1-76.9 76.1zM859.1 269.6c0-4.3-3.6-7.9-8-7.9h-676.2c-4.3 0-8 3.6-8 7.9v453.8c0 4.3 3.7 7.9 8 7.9h676.2c4.3 0 8-3.6 8-7.9v-453.8z" />
<glyph unicode="&#xe919;" glyph-name="screenshot" d="M782.4 44.2c-19.8 0-35.9 16.1-35.9 35.8v69.3h-448.7c-49.3 0-89.4 39.1-89.4 87.2v438.4h-72c-22.2 0-35.1 12.3-35.6 33.7-0.1 9.3 3.5 18.1 10.2 24.8 7 7 16.4 10.9 26.5 10.9h70.9v70.4c0 21.6 12.6 34.2 34.6 34.7 20.1 0 36.6-16.1 36.6-35.8v-70l13.4 0.6h435.3c49.3 0 89.3-39.1 89.3-87.2v-287.9c0-21.6-12.6-34.2-34.5-34.6-20.2 0-36.6 16-36.6 35.8v259.3c0 25-20.8 45.3-46.3 45.3h-407.5l-13.2 0.7v-404.4c0-29 24.1-52.5 53.7-52.5h555.3c10.1 0 19.5-3.8 26.5-10.8 6.8-6.8 10.4-15.6 10.2-24.9-0.4-21.4-13.4-33.7-35.5-33.7h-72.1v-70.4c0-21.6-12.5-34.2-34.4-34.7h-0.8z" />
<glyph unicode="&#xe91a;" glyph-name="timer" d="M802.6 635.5l24.8 24.9c13.3 13.3 13.3 35 0 48.4-6.4 6.5-15 10-24.2 10-9.1 0-17.7-3.5-24.2-10l-24.8-24.8c-59.3 49.5-130.6 79.2-207 86.1v38.3h97.2c18.9 0 34.3 15.4 34.3 34.3s-15.4 34.3-34.3 34.3h-263c-18.9 0-34.3-15.4-34.3-34.3s15.4-34.3 34.3-34.3h97.2v-38.3c-192.9-17.4-343-181.1-343-375.9 0-208.1 169.3-377.4 377.3-377.4 208.1 0 377.3 169.3 377.3 377.4 0.1 87.9-31 173.3-87.6 241.3zM513 703.2c170.4 0 309.1-138.7 309.1-309.2s-138.7-309-309.1-309-309 138.6-309 309.1 138.6 309.1 309 309.1zM513 341.2c29.2 0 211.2 52.8 211.2 52.8s-101.4 29.4-164.9 44.3c-14.2 76.6-46.3 219.8-46.3 219.8s-52.8-234.9-52.8-264.1c0-29.2 23.6-52.8 52.8-52.8z" />
<glyph unicode="&#xe91b;" glyph-name="tool" d="M210.6 45c-54.8 0-99.4 43.7-99.4 97.3v483c0 53.7 44.6 97.3 99.4 97.3h51.6v28.6c0 53.7 44.6 97.3 99.3 97.3h304.9c54.8 0 99.3-43.7 99.3-97.3v-28.6h49.6c54.8 0 99.3-43.7 99.3-97.3v-483c0-53.7-44.5-97.3-99.3-97.3h-604.7zM232.2 655.2c-28.6 0-51.9-22.9-51.9-51v-440.6c0-28.1 23.3-51 51.9-51h561.6c28.6 0 51.8 22.9 51.8 51v440.5c0 28.1-23.2 51-51.8 51h-561.6zM383.2 781c-28.1 0-50.8-21.7-51.7-49.5l-0.3-8.9h365.8l-0.3 8.9c-0.9 27.7-23.6 49.5-51.7 49.5h-261.8zM287.9 287.6c-19.1 0-34.5 15.1-34.5 33.7s15.5 33.7 34.5 33.7h68.2v114c0 18.6 15.5 33.7 34.5 33.7 19.1 0 34.5-15.1 34.5-33.7v-113.9h175.7v113.9c0 18.6 15.5 33.7 34.5 33.7s34.7-15.1 34.7-33.7v-113.9h70.2c19.1 0 34.5-15.1 34.5-33.7s-15.5-33.7-34.5-33.7h-452.3z" />
<glyph unicode="&#xe91c;" glyph-name="up" d="M513 31.8c228.2 0 415 186.7 415 415 0 228.2-186.7 415-415 415-228.2 0-415-186.7-415-415s186.8-415 415-415v0zM513 792.6c190.2 0 345.8-155.6 345.8-345.8s-155.6-345.8-345.8-345.8c-190.2 0-345.8 155.6-345.8 345.8s155.6 345.8 345.8 345.8v0zM284.8 353.4c13.8-13.8 34.6-13.8 48.4 0l179.8 179.8 179.8-179.8c13.8-13.8 34.6-13.8 48.4 0s13.8 34.6 0 48.4l-204 204c-13.8 13.8-34.6 13.8-48.4 0l-204-204c-13.9-10.4-13.9-34.6 0-48.4v0z" />
<glyph unicode="&#xe91d;" glyph-name="vote" d="M592 586.9l-96.4-92.2-62.7 60.5c-6.8 6.2-15.6 9.6-25 9.6-9.5 0-18.4-3.5-25.5-10-13.1-13.1-13-33.8 0-46.9l72-69.8c11.1-10.1 25.8-15.7 41-15.7 16 0 30.7 5.8 41.7 16.4l105.3 100.8c6.7 6.4 10.5 14.9 10.5 23.7s-3.8 17.2-10.5 23.6c-6.6 6.3-15.6 9.8-25.2 9.8-9.6 0.1-18.5-3.4-25.2-9.8zM855.7 415.1h-147.5l76.2 73c6.6 6.3 10.3 14.7 10.3 23.6s-3.6 17.2-10.3 23.6c-6.7 6.4-15.7 10-25.1 10-9.6 0-18.5-3.5-25.2-10l-235.9-225.9c-3.9-3.8-9.1-5.8-15.5-5.8v0c-5.2 0.2-10.2 2.4-14 6.1l-185.8 178c-4 3.9-6.3 9-6.3 14.5s2.2 10.7 6.3 14.6l261.8 250.7c3.8 3.8 8.8 5.9 14.9 6.1 5.5 0 10.7-2.1 14.7-5.8l159-152.3c6.7-6.4 15.7-10 25.2-10 9.6 0 18.6 3.6 25.3 10 6.6 6.3 10.3 14.7 10.3 23.7 0 8.9-3.7 17.3-10.3 23.7l-195.9 187.3c-7.3 7.5-17.4 11.6-28.4 11.6-10.3 0-20.5-4.2-28.1-11.4l-335.9-321.7c-7.3-7.3-11.2-16.9-11.1-27 0.1-9.9 4.1-19.1 11.3-26l63.2-60.7h-88.6c-39.9 0-72.4-30.9-72.4-68.9v-244.6c0-38 32.4-68.9 72.4-68.9h685.3c39.8 0 72.3 30.9 72.3 68.9v244.7c0.1 38-32.4 68.9-72.2 68.9zM857.2 120.4c0-11.2-9.4-20.4-20.9-20.4h-646.5c-11.5 0-20.8 9.1-20.8 20.4v207.2c0 11.2 9.3 20.3 20.8 20.3h139.1l78.9-75.7h-114.3c-9.7 0-18.7-3.5-25.3-9.9-6.5-6.3-10.1-14.7-10.1-23.8 0-18.5 16.2-33.5 36-33.5h438.3c9.7 0 18.7 3.5 25.4 9.9 6.6 6.2 10.1 14.7 10.1 23.7 0 18.5-16.3 33.6-36.2 33.6h-172.7l79.2 75.7h198.1c11.5 0 20.9-9.1 20.9-20.4v-207.1z" />
<glyph unicode="&#xe91e;" glyph-name="zoom-in" d="M932.8 78.7l-0.4 0.7-155.2 155.6c58.9 70.2 91.1 158.9 90.8 250.5-0.3 50.3-10.2 100.2-29.1 146.8v2.1c-19.5 46.8-47.8 89.4-83.4 125.4l-1.8 1.8c-73.4 73.8-173.1 115.3-277.2 115.3-104 0-203.8-41.4-277.1-115.2-36.6-36.2-65.8-79.1-85.9-126.5-39.2-95.5-39.2-202.7 0-298.2v-1.8c39.8-96.2 116.3-172.6 212.5-212.4 134.5-55.7 288.8-32.4 400.7 60.6l155.7-155.6c14-13.9 36.7-13.9 50.7 0.2 13.8 14.1 13.8 36.8-0.3 50.7zM702.8 259.6l-0.7-0.3c-29.5-29.8-64.5-53.6-103.1-70.1-78.7-32.1-166.8-32.1-245.4 0-78.6 33.4-141 96.3-173.5 175.2-31.7 78.1-31.7 165.5 0 243.5 16.3 38.7 40.1 73.7 70.1 103 59.7 60.7 141.4 94.7 226.5 94.3 42-0.1 83.5-8.4 122.4-24.2 39.4-16.1 75.2-39.9 105.2-70.1h1.8c28.9-29.2 51.8-63.7 67.7-101.6v-2.1c15.4-38.3 23.4-79.2 23.5-120.5 0.1-41.9-8.1-83.3-24.2-121.9-16.1-39.6-39.9-75.4-70.3-105.2zM613.1 505.9h-111.9v120.2c0 16.1-13 29.1-29.1 29.1h-2.8c-15.9-0.2-28.8-13.2-28.8-29.1v-120.2h-111.4c-16.1 0-29.1-13-29.1-29.1 0-7.7 3.1-15.1 8.5-20.6 5.5-5.4 12.9-8.5 20.6-8.5h111.5l-0.3-120.2c0-16.1 13-29.1 29.1-29.1h3.2c16.1 0 29.1 13 29.1 29.1v120.2h111.5c7.7 0 15.1 3.1 20.6 8.5 5.5 5.5 8.5 12.9 8.5 20.6-0.1 16.1-13.1 29.1-29.2 29.1z" />
</font>
</defs>
</svg>
